HIERARCHY
ROOT joint_Root
{
	OFFSET 0.0 0.0 0.0
	CHANNELS 6 Xposition Yposition Zposition Zrotation Xrotation Yrotation 
	JOINT Hips
	{
		OFFSET 4.5925 91.4895 -427.239
		CHANNELS 6 Xposition Yposition Zposition Zrotation Xrotation Yrotation 
		JOINT Spine
		{
			OFFSET 15.7357 0.0 0.0
			CHANNELS 6 Xposition Yposition Zposition Zrotation Xrotation Yrotation 
			JOINT Chest
			{
				OFFSET 8.98455 -0.406207 0.0
				CHANNELS 6 Xposition Yposition Zposition Zrotation Xrotation Yrotation 
				JOINT Neck
				{
					OFFSET 16.3773 0.0 0.0
					CHANNELS 6 Xposition Yposition Zposition Zrotation Xrotation Yrotation 
					JOINT Head
					{
						OFFSET 6.45672 0.0 0.0
						CHANNELS 6 Xposition Yposition Zposition Zrotation Xrotation Yrotation 
						End Site
						{
							OFFSET 0.0 0.0 0.0
						}
					}
				}
				JOINT Shoulder_L
				{
					OFFSET 12.9942 -0.242716 4.98039
					CHANNELS 6 Xposition Yposition Zposition Zrotation Xrotation Yrotation 
					JOINT UpperArm_L
					{
						OFFSET 5.34809 0.0 0.0
						CHANNELS 6 Xposition Yposition Zposition Zrotation Xrotation Yrotation 
						JOINT LowerArm_L
						{
							OFFSET 24.3286 1.87007e-05 0.0
							CHANNELS 6 Xposition Yposition Zposition Zrotation Xrotation Yrotation 
							JOINT Hand_L
							{
								OFFSET 22.2916 0.0 0.0
								CHANNELS 6 Xposition Yposition Zposition Zrotation Xrotation Yrotation 
								End Site
								{
									OFFSET 0.0 0.0 0.0
								}
							}
						}
					}
				}
				JOINT Shoulder_R
				{
					OFFSET 12.9945 -0.242716 -4.98039
					CHANNELS 6 Xposition Yposition Zposition Zrotation Xrotation Yrotation 
					JOINT UpperArm_R
					{
						OFFSET -5.34813 0.0 0.0
						CHANNELS 6 Xposition Yposition Zposition Zrotation Xrotation Yrotation 
						JOINT LowerArm_R
						{
							OFFSET -24.3289 0.000322201 0.0
							CHANNELS 6 Xposition Yposition Zposition Zrotation Xrotation Yrotation 
							JOINT Hand_R
							{
								OFFSET -22.2915 -0.000108084 0.0
								CHANNELS 6 Xposition Yposition Zposition Zrotation Xrotation Yrotation 
								End Site
								{
									OFFSET 0.0 0.0 0.0
								}
							}
						}
					}
				}
			}
		}
		JOINT UpperLeg_L
		{
			OFFSET -2.19248 -6.46944 0.0
			CHANNELS 6 Xposition Yposition Zposition Zrotation Xrotation Yrotation 
			JOINT LowerLeg_L
			{
				OFFSET 39.0811 0.0 -1.23785e-05
				CHANNELS 6 Xposition Yposition Zposition Zrotation Xrotation Yrotation 
				JOINT Foot_L
				{
					OFFSET 40.9854 0.0 -1.26872e-05
					CHANNELS 6 Xposition Yposition Zposition Zrotation Xrotation Yrotation 
					JOINT Toes_L
					{
						OFFSET 11.7543 0.0 0.0
						CHANNELS 6 Xposition Yposition Zposition Zrotation Xrotation Yrotation 
						End Site
						{
							OFFSET 0.0 0.0 0.0
						}
					}
				}
			}
		}
		JOINT UpperLeg_R
		{
			OFFSET -2.19251 6.46944 0.0
			CHANNELS 6 Xposition Yposition Zposition Zrotation Xrotation Yrotation 
			JOINT LowerLeg_R
			{
				OFFSET -39.0811 -0.00228153 -0.0401928
				CHANNELS 6 Xposition Yposition Zposition Zrotation Xrotation Yrotation 
				JOINT Foot_R
				{
					OFFSET -40.9854 0.0 0.0
					CHANNELS 6 Xposition Yposition Zposition Zrotation Xrotation Yrotation 
					JOINT Toes_R
					{
						OFFSET -11.7543 0.0 0.0
						CHANNELS 6 Xposition Yposition Zposition Zrotation Xrotation Yrotation 
						End Site
						{
							OFFSET 0.0 0.0 0.0
						}
					}
				}
			}
		}
	}
}
MOTION
Frames:	4
Frame Time:	0.0333333
0.000000 0.000000 0.000000 0.000000 0.000000 -0.000000 4.052430 91.179300 2.688030 88.941100 -9.086090 1.759680 15.735700 0.000005 -0.000001 84.806800 85.270200 -81.810600 8.984550 -0.406207 -0.000000 1.688530 -1.014460 6.001970 16.377300 -0.000001 -0.000001 3.657920 0.709048 -2.201230 6.456720 -0.000001 -0.000000 -1.312380 -0.059987 1.134530 12.994200 -0.242716 4.980390 -85.579000 -8.956080 -63.589800 5.348090 -0.000007 -0.000001 -34.975700 -63.206000 -70.959500 24.328600 0.000019 0.000005 12.848200 6.344420 -64.149600 22.291600 -0.000001 0.000005 17.370700 5.321490 -0.538924 12.994500 -0.242716 -4.980390 87.841200 9.034670 -76.501200 -5.348130 -0.000001 -0.000004 -60.052700 20.953200 -7.718280 -24.328900 0.000322 -0.000009 -0.254994 -0.595130 -23.107000 -22.291500 -0.000108 -0.000004 16.901600 5.415800 -3.458140 -2.192480 -6.469440 -0.000000 -178.391000 -16.864500 -3.685120 39.081100 -0.000007 -0.000012 -0.164861 0.326763 26.772400 40.985400 -0.000006 -0.000013 1.943050 2.294800 -71.540200 11.754300 -0.000000 0.000003 -0.000226 -0.002049 -16.654600 -2.192510 6.469440 -0.000001 173.973000 18.082000 175.535000 -39.081100 -0.002282 -0.040193 -0.019761 0.046959 26.164900 -40.985400 0.000008 0.000006 4.302970 17.708700 -70.489000 -11.754300 -0.000006 -0.000006 -0.000187 -0.003097 -16.699600
0.000000 0.000000 0.000000 0.000000 0.000000 -0.000000 3.933420 91.160300 2.746200 88.966300 -8.552370 1.884320 15.735700 0.000005 -0.000001 84.551600 85.207500 -81.658500 8.984550 -0.406207 -0.000000 1.809350 -1.059760 5.797590 16.377300 -0.000001 -0.000001 3.666690 0.356709 -1.809080 6.456720 -0.000001 -0.000000 -1.608310 -0.110906 1.155370 12.994200 -0.242716 4.980390 -86.047000 -8.274330 -64.351400 5.348090 -0.000007 -0.000001 -31.896400 -60.730400 -63.895100 24.328600 0.000019 0.000005 13.238600 4.439290 -71.789600 22.291600 -0.000001 0.000005 17.063700 5.319640 -0.485023 12.994500 -0.242716 -4.980390 87.793200 9.103350 -76.311400 -5.348130 -0.000001 -0.000004 -60.227900 21.337900 -7.974670 -24.328900 0.000322 -0.000009 -0.269001 -0.638136 -22.777600 -22.291500 -0.000108 -0.000004 16.902300 5.414790 -3.424510 -2.192480 -6.469440 -0.000000 -178.243000 -16.777600 -3.595010 39.081100 -0.000007 -0.000012 -0.164592 0.324667 26.883200 40.985400 -0.000006 -0.000013 1.964360 2.716800 -71.600000 11.754300 -0.000000 0.000003 -0.000226 -0.002050 -16.654600 -2.192510 6.469440 -0.000001 173.910000 18.475000 175.816000 -39.081100 -0.002282 -0.040193 -0.028914 0.065501 26.195200 -40.985400 0.000008 0.000006 4.138470 17.613000 -70.558600 -11.754300 -0.000006 -0.000006 -0.000155 -0.002563 -16.677900
0.000000 0.000000 0.000000 0.000000 0.000000 -0.000000 3.818170 91.148200 2.782390 89.046400 -7.940400 1.968240 15.735700 0.000005 -0.000001 84.194000 85.184500 -81.432100 8.984550 -0.406207 -0.000000 1.848780 -1.116150 5.536860 16.377300 -0.000001 -0.000001 3.643070 -0.029396 -1.399990 6.456720 -0.000001 -0.000000 -1.764650 -0.189447 1.225170 12.994200 -0.242716 4.980390 -86.640100 -7.307200 -65.223600 5.348090 -0.000007 -0.000001 -29.131000 -57.037700 -56.798000 24.328600 0.000019 0.000005 13.238500 2.414740 -79.850100 22.291600 -0.000001 0.000005 16.874200 5.320410 -0.507610 12.994500 -0.242716 -4.980390 87.738700 9.221980 -76.158300 -5.348130 -0.000001 -0.000004 -60.424000 21.785200 -8.006790 -24.328900 0.000322 -0.000009 -0.275685 -0.661150 -22.557200 -22.291500 -0.000108 -0.000004 16.907800 5.413550 -3.383020 -2.192480 -6.469440 -0.000000 -178.171000 -16.603400 -3.555870 39.081100 -0.000007 -0.000012 -0.162750 0.320250 26.939700 40.985400 -0.000006 -0.000013 2.004760 3.190140 -71.611500 11.754300 -0.000000 0.000003 -0.000235 -0.002117 -16.657000 -2.192510 6.469440 -0.000001 173.820000 18.875600 176.026000 -39.081100 -0.002282 -0.040193 -0.036843 0.081459 26.239700 -40.985400 0.000008 0.000006 3.985610 17.442400 -70.623400 -11.754300 -0.000006 -0.000006 -0.000264 -0.004327 -16.749600
0.000000 0.000000 0.000000 0.000000 0.000000 -0.000000 3.686410 91.142800 2.810550 89.100600 -7.308630 2.039240 15.735700 0.000005 -0.000001 84.221200 85.162000 -81.597600 8.984550 -0.406207 -0.000000 1.892010 -1.108020 5.260650 16.377300 -0.000001 -0.000001 3.471070 -0.417542 -0.983032 6.456720 -0.000001 -0.000000 -1.856320 -0.308399 1.228470 12.994200 -0.242716 4.980390 -87.282800 -6.206270 -66.299800 5.348090 -0.000007 -0.000001 -27.003900 -52.007300 -49.770600 24.328600 0.000019 0.000005 13.173800 0.494771 -87.888400 22.291600 -0.000001 0.000005 16.792000 5.319580 -0.483609 12.994500 -0.242716 -4.980390 87.662500 9.386770 -75.948900 -5.348130 -0.000001 -0.000004 -60.634900 22.294200 -7.949800 -24.328900 0.000322 -0.000009 -0.327912 -0.794440 -22.364500 -22.291500 -0.000108 -0.000004 16.786000 5.413400 -3.377930 -2.192480 -6.469440 -0.000000 -178.050000 -16.497800 -3.522600 39.081100 -0.000007 -0.000012 -0.161648 0.317502 26.982000 40.985400 -0.000006 -0.000013 2.049560 3.741110 -71.608900 11.754300 -0.000000 0.000003 -0.000239 -0.002150 -16.658200 -2.192510 6.469440 -0.000001 173.805000 19.266700 176.223000 -39.081100 -0.002282 -0.040193 -0.036709 0.081028 26.284100 -40.985400 0.000008 0.000006 4.076790 17.178800 -70.764200 -11.754300 -0.000006 -0.000006 -0.000133 -0.002215 -16.663800
